<svg width="113" height="46" viewBox="0 0 113 46" fill="none" xmlns="http://www.w3.org/2000/svg">
<path d="M0 18.9229C0 19.2564 0.361231 19.6176 0.694674 19.6176H13.56C13.9491 19.6176 14.2825 19.3119 14.2825 18.9229V15.9775C14.2825 15.5885 13.9491 15.2828 13.56 15.2828H6.08534C5.83526 15.2828 5.61297 15.1717 5.47403 14.9494C5.3351 14.7549 5.25173 14.5604 5.25173 14.4214V0.944757C5.25173 0.750248 5.19616 0.583527 5.05723 0.444592C4.94608 0.305658 4.77936 0.250083 4.55706 0.250083H2.41747C2.11181 0.250083 1.83394 0.305658 1.52828 0.416806C0.6391 0.833609 0 1.61164 0 2.63976V18.9229Z" fill="#F21E42"/>
<path d="M16.6335 18.9507C16.6335 19.3675 16.9114 19.6454 17.3282 19.6454H30.6104C30.9994 19.6454 31.3328 19.3397 31.3328 18.9507V16.2276C31.3328 15.783 31.055 15.5051 30.6104 15.5051H22.4966C22.2465 15.5051 22.0242 15.4218 21.8853 15.2273C21.7185 15.0327 21.6352 14.8382 21.6352 14.6437V13.3377C21.6352 12.5319 20.8849 11.8928 20.1069 11.8928H28.5263C28.9987 11.8928 29.2488 11.6427 29.2488 11.1704V8.66953C29.2488 8.19715 28.9987 7.94707 28.5263 7.94707H22.4966C22.0242 7.94707 21.6352 7.58584 21.6352 7.08567V5.91862C21.6352 5.08501 20.9405 4.41813 20.1069 4.41813H30.3881C30.5826 4.41813 30.7493 4.36255 30.8882 4.22362C31.0272 4.11247 31.1105 3.94575 31.1105 3.75124V1.00033C31.1105 0.6391 30.7493 0.277869 30.3881 0.277869H19.051C17.6894 0.277869 16.6335 1.33377 16.6335 2.69533V18.9507Z" fill="#F21E42"/>
<path d="M32.9334 19.5342C33.0723 19.6454 33.2113 19.701 33.3502 19.701H36.9347C37.4071 19.701 37.7128 19.5064 37.8795 19.0896L38.2685 18.0337C38.4352 17.6169 38.4074 17.2279 38.2129 16.8945C38.0184 16.6166 37.7683 16.4499 37.4627 16.3943H38.4352C40.8805 16.3943 43.3813 16.0331 45.6876 15.1717L47.1325 19.0896C47.2993 19.5064 47.6049 19.701 48.0773 19.701H51.6618C51.9675 19.701 52.2453 19.4231 52.2453 19.1174C52.2453 18.9785 52.2453 18.8951 52.2176 18.8673L45.771 1.13927C45.5765 0.611313 45.1875 0.333444 44.6595 0.333444H40.3525C39.8246 0.333444 39.4356 0.611313 39.241 1.13927L32.7945 18.8673C32.7667 18.8951 32.7667 18.9785 32.7667 19.1174C32.7667 19.2564 32.8223 19.3953 32.9334 19.5342ZM44.6317 11.3093C43.3535 12.004 41.4084 12.3374 39.9913 12.4208L42.4921 5.19616L44.6317 11.3093Z" fill="#F21E42"/>
<path d="M54.4329 19.0063C54.4329 19.4231 54.7108 19.701 55.1276 19.701H62.5467C68.1041 19.701 70.9661 17.1723 71.1329 12.1151C71.1607 11.865 71.1607 11.5594 71.1607 11.1981V8.80846C71.1607 8.44723 71.1607 8.14158 71.1329 7.8915C71.0217 2.69533 67.4928 0.333444 62.4078 0.333444H56.8504C55.5166 0.333444 54.4329 1.41713 54.4329 2.75091V19.0063ZM60.4905 15.5607C60.2404 15.5607 60.0181 15.4773 59.8792 15.3106C59.7124 15.1439 59.6291 14.9494 59.6291 14.6993V5.91862C59.6291 5.1128 58.8788 4.4737 58.1008 4.4737H62.2688C64.6029 4.4737 65.7978 5.64075 65.8533 7.94707C65.8811 8.19715 65.8811 8.50281 65.9089 8.83625V11.1426C65.8811 11.5038 65.8811 11.8095 65.8533 12.0595C65.7978 14.3936 64.7974 15.5607 62.4078 15.5607H60.4905Z" fill="#F21E42"/>
<path d="M90.16 13.8101C90.16 9.66986 86.5755 8.5306 83.0187 7.97486C81.5182 7.6692 80.4901 7.36354 79.9344 7.05789C79.3786 6.75223 79.1008 6.30764 79.1008 5.77969C79.1008 4.44591 80.4346 4.16804 81.546 4.16804C81.7961 4.16804 82.0462 4.19583 82.2963 4.22362C82.5464 4.27919 82.8242 4.36255 83.0743 4.44591C83.3244 4.55706 83.5189 4.696 83.7134 4.86272C83.9079 5.05723 84.0191 5.27952 84.1024 5.5296C84.3247 5.86305 84.6304 6.02977 85.0472 6.02977H88.9096C89.0763 6.02977 89.2152 5.9742 89.3264 5.86305C89.4375 5.72411 89.4931 5.55739 89.4931 5.41846C89.4653 4.61263 89.1319 3.77903 88.4928 2.94542C86.8533 0.861396 84.1302 0 81.546 0C77.9337 0 73.7935 1.63943 73.7935 5.89083C73.7935 9.83658 77.0445 11.1148 80.4623 11.7817C81.3515 12.004 82.2129 12.1985 83.0743 12.4486C83.4633 12.5875 83.8523 12.7542 84.2414 12.9765C84.6304 13.2266 84.8249 13.5878 84.8249 14.0602C84.8249 14.7827 84.3247 15.2273 83.6856 15.4495C83.38 15.5885 83.0465 15.6718 82.6853 15.6996C82.3241 15.7552 82.0184 15.783 81.7405 15.783C81.1014 15.783 80.4901 15.6718 79.9344 15.4495C79.3509 15.255 78.9063 14.8382 78.5728 14.2547C78.295 13.8657 78.0449 13.7545 77.5725 13.7545H73.9046C73.7657 13.7545 73.599 13.8101 73.46 13.9213C73.3489 14.0324 73.2933 14.1713 73.2933 14.3381C73.3211 15.3106 73.6545 16.2276 74.3214 17.089C75.9886 19.3119 79.1564 19.9232 81.7405 19.9232C85.5474 19.9232 90.16 18.3394 90.16 13.8101Z" fill="#F21E42"/>
<rect x="22" y="42" width="14" height="4" rx="2" fill="white"/>
<path d="M0 43.1968C0 43.6136 0.27787 43.8915 0.694674 43.8915H4.4737C4.696 43.8915 4.86272 43.8359 5.00165 43.697C5.14059 43.5858 5.19616 43.4191 5.19616 43.1968V37.8895C5.19616 37.5283 5.08501 37.1948 4.83493 36.917C4.58485 36.6669 4.2514 36.5002 3.89017 36.4446H4.50149C4.75157 36.4724 5.08501 36.4724 5.44624 36.4724C7.19682 36.4724 8.91961 36.3334 10.6146 35.8611C10.7258 35.8333 10.8091 35.8055 10.8925 35.8055C11.087 35.8055 11.2815 35.8611 11.476 36C11.6427 36.1389 11.7261 36.3334 11.7261 36.6113V43.1968C11.7261 43.5858 12.0595 43.8915 12.4486 43.8915H16.1998C16.4221 43.8915 16.5888 43.8359 16.7277 43.697C16.8667 43.5858 16.9223 43.4191 16.9223 43.1968V25.2464C16.9223 24.7741 16.6722 24.524 16.1998 24.524H14.1436C12.8376 24.524 11.7261 25.6077 11.7261 26.9414V30.7483C11.7261 31.1651 11.5038 31.3596 11.1704 31.5541C9.41978 32.3043 7.94707 32.471 6.05756 32.5266C5.91862 32.5266 5.7519 32.471 5.5296 32.3321C5.30731 32.221 5.19616 31.9987 5.19616 31.693V25.2464C5.19616 24.7741 4.94608 24.524 4.4737 24.524H2.41747C1.08369 24.524 0 25.6077 0 26.9414V43.1968Z" fill="white"/>
<path d="M20.6192 32.3863C20.6192 37.5269 23.8703 40 29.0109 40C33.8736 40 37.347 37.7492 37.347 32.3863V25.0228C37.347 24.606 37.0413 24.3281 36.6245 24.3281H34.5405C33.6513 24.3281 32.7343 24.8561 32.3731 25.6619C32.2064 25.9676 32.123 26.301 32.123 26.69V32.3308C32.123 34.4704 31.2061 35.7486 28.9831 35.7486C26.7879 35.7486 25.8432 34.4426 25.8432 32.3308V25.0228C25.8432 24.606 25.5375 24.3281 25.1207 24.3281H23.0367C22.7866 24.3281 22.5087 24.3837 22.2309 24.4671C21.9252 24.5782 21.6751 24.7449 21.4528 24.9394C21.2028 25.1339 21.0082 25.384 20.8693 25.6897C20.7026 25.9953 20.6192 26.3288 20.6192 26.7178V32.3863Z" fill="white"/>
<path d="M40.9743 43.1412C40.9743 43.4747 41.3355 43.8359 41.6689 43.8359H45.1979C45.5869 43.8359 45.9203 43.5303 45.9203 43.1412L46.1982 33.8326C46.226 33.8882 46.3371 34.0549 46.5316 34.3328C46.7262 34.6384 46.9484 34.9719 47.2263 35.3887C47.5042 35.8055 47.8098 36.2779 48.1155 36.7502C48.4212 37.2504 48.8658 37.9173 49.3937 38.7231C50.2829 40.0847 51.2832 41.613 52.3947 43.308C52.617 43.6692 52.9226 43.8359 53.3394 43.8359H56.4794C56.6739 43.8359 56.8406 43.7526 56.9795 43.6136C57.1185 43.4469 57.174 43.2802 57.174 43.1135V25.1909C57.174 24.9964 57.1185 24.8296 56.9795 24.6629C56.8406 24.524 56.6739 24.4684 56.4794 24.4684H54.701C53.3395 24.4684 52.2558 25.5243 52.2558 26.8859L52.0057 34.8885C51.9779 34.8329 51.8667 34.6662 51.6722 34.3606C51.4777 34.0549 51.2554 33.6937 50.9776 33.2769C50.6997 32.8601 50.4218 32.4155 50.1162 31.9153C49.8105 31.4429 49.3659 30.776 48.838 29.9424C47.9766 28.5809 46.9762 27.0248 45.8925 25.3298C45.448 24.7185 45.0867 24.4684 44.3087 24.4684H43.3917C42.0579 24.4684 40.9743 25.5521 40.9743 26.8859V43.1412Z" fill="white"/>
<path d="M62.1119 24.4684C60.8059 24.4684 59.6944 25.5521 59.6944 26.8581V28.2752C59.6944 28.6642 60.0279 28.9699 60.4169 28.9699H64.446C64.9184 28.9699 65.2796 29.3311 65.2796 29.8035V43.1412C65.2796 43.3357 65.363 43.5025 65.5019 43.6136C65.6408 43.7526 65.8075 43.8081 66.0021 43.8081H69.8644C70.059 43.8081 70.2257 43.7526 70.3646 43.6136C70.5035 43.5025 70.5869 43.3357 70.5869 43.1412V30.4148C70.5869 29.609 69.7811 28.9699 69.003 28.9699H75.4496C75.8664 28.9699 76.1721 28.692 76.1721 28.2752V25.1631C76.1721 24.7463 75.8664 24.4684 75.4496 24.4684H62.1119Z" fill="white"/>
<path d="M78.6386 43.169C78.6386 43.5025 78.9998 43.8637 79.3333 43.8637H92.6154C92.81 43.8637 93.0045 43.8081 93.1434 43.6692C93.2823 43.558 93.3379 43.3913 93.3379 43.169V40.4459C93.3379 39.9735 93.0878 39.7234 92.6154 39.7234H84.5017C84.0293 39.7234 83.668 39.3344 83.668 38.862V37.5561C83.668 36.7502 82.9178 36.1111 82.1398 36.1111H90.5592C90.976 36.1111 91.2817 35.8055 91.2817 35.3887V32.8879C91.2817 32.4433 91.0038 32.1654 90.5592 32.1654H84.5017C84.0293 32.1654 83.668 31.7764 83.668 31.304V30.1369C83.668 29.3033 82.9734 28.6364 82.1398 28.6364H92.3932C92.6154 28.6364 92.7822 28.5809 92.9211 28.4419C93.06 28.3308 93.1156 28.1641 93.1156 27.9696V25.2187C93.1156 24.7741 92.8377 24.4962 92.3932 24.4962H81.0561C79.6945 24.4962 78.6386 25.5521 78.6386 26.9137V43.169Z" fill="white"/>
<path d="M112.416 43.8637C112.555 43.8637 112.694 43.8081 112.833 43.697C112.944 43.5858 113 43.4469 113 43.308C113 43.2246 112.972 43.1135 112.917 43.0023L109.415 36.6669C109.36 36.5835 109.332 36.5002 109.36 36.3612C109.36 36.2223 109.443 36.1111 109.582 36.0278C111.527 34.9163 112.555 33.1101 112.555 30.8594C112.555 26.2746 109.054 24.524 104.775 24.524H98.8842C97.5227 24.524 96.4668 25.5521 96.4668 26.9137V43.1968C96.4668 43.5303 96.8558 43.8637 97.1614 43.8637H100.968C101.163 43.8637 101.329 43.8081 101.468 43.6692C101.607 43.558 101.663 43.3913 101.663 43.1968V38.612C101.663 38.2785 101.524 37.9451 101.274 37.6116C100.996 37.306 100.635 37.1393 100.162 37.1393H103.803C104.136 37.1393 104.386 37.2782 104.553 37.5838L107.387 43.1412C107.609 43.6136 107.971 43.8637 108.499 43.8637H112.416ZM107.193 30.8316C107.193 32.3321 106.192 33.0546 104.747 33.0546H102.33C102.08 33.0546 101.885 32.9712 101.746 32.8045C101.58 32.6378 101.496 32.4433 101.496 32.221V29.9702C101.496 29.1366 100.774 28.4975 99.9679 28.4975H104.747C105.47 28.4975 106.053 28.692 106.526 29.081C106.97 29.4978 107.193 30.0814 107.193 30.8316Z" fill="white"/>
</svg>
